# xmcd
#
# Track frame offsets:
#	150
#	19959
#	42258
#	59267
#	84968
#	104013
#	136114
#	159266
#	173976
#	187270
#	204259
#	225864
#	244414
#	258515
#	279686
#	294081
#	308958
#	323864
#
# Disc length: 4447 seconds
#
# Revision: 0
# Processed by: cddbd v1.5.2PL0 Copyright (c) Steve Scherf et al.
# Submitted via: audiograbber 1.83.01
#
DISCID=fa115d12
DTITLE=VA la ruta del americana - CD1
DYEAR=2004
DGENRE=Country
TTITLE0=TEDDY MORGAN - WORLD FOR THE KNOWING
TTITLE1=RICH HOPKINS - CROSSING GUARD
TTITLE2=JASON RINGENBERG - ONELESS HEARTACHE
TTITLE3=DRIVE BY TRUCKERS - MARRY ME
TTITLE4=FIVE HORSE JOHNSON - CHERRY RED
TTITLE5=JAY FARRAR - LIKE A HURRICANE
TTITLE6=CINDY BULLENS and STEVE EARLE - NEVERLAND
TTITLE7=EDDIE SPAGHETTI - I DON´T WANT TO LOSE YOU YET
TTITLE8=THE FLATLANDERS - BABY, DO YOU LOVE ME STILL
TTITLE9=TEXANA DAMES - PICTURE CARDS CAN´T PICTURE YOU
TTITLE10=TONY JOE WHITE - HARD TIME WITH SUNDAY
TTITLE11=THE RESENTMENTS - WORLD SO FULL
TTITLE12=GREY TROOPER and MAURA O'CONNELL - INISHEER
TTITLE13=SCOTT MILLER - AMTRACK CRESCENT
TTITLE14=DELBERT McCLINTON - OLD WEAKNESS
TTITLE15=BILLY JOE SHAVER and TOD SNIDER - DEJA BLUES
TTITLE16=KATE CAMPBELL and RODNEY CROWELL - A PERFECT WORLD
TTITLE17=TWONES VAN ZANDT - WHEN YOUR DREAM LOVERS DIE
EXTD=
EXTT0=
EXTT1=
EXTT2=
EXTT3=
EXTT4=
EXTT5=
EXTT6=
EXTT7=
EXTT8=
EXTT9=
EXTT10=
EXTT11=
EXTT12=
EXTT13=
EXTT14=
EXTT15=
EXTT16=
EXTT17=
PLAYORDER=
